<mxfile host="app.diagrams.net" agent="Mozilla/5.0 (Windows NT 10.0; Win64; x64) AppleWebKit/537.36 (KHTML, like Gecko) Chrome/135.0.0.0 Safari/537.36" version="26.2.4">
  <diagram id="2ZMohMQ7uXzESjd8orPI" name="Page-1">
    <mxGraphModel dx="1654" dy="916" grid="1" gridSize="10" guides="1" tooltips="1" connect="1" arrows="1" fold="1" page="1" pageScale="1" pageWidth="827" pageHeight="1169" math="0" shadow="0">
      <root>
        <mxCell id="0" />
        <mxCell id="1" parent="0" />
        <mxCell id="zUx5eXAxTb8A57SiyCMb-3" value="" style="rounded=0;whiteSpace=wrap;html=1;fillColor=none;dashed=1;" parent="1" vertex="1">
          <mxGeometry x="280.01" y="310" width="879.99" height="460" as="geometry" />
        </mxCell>
        <mxCell id="izIqLuCCxUpFBqjcdbpk-2" value="ms-users-frontend" style="rounded=0;whiteSpace=wrap;html=1;" parent="1" vertex="1">
          <mxGeometry x="420.22" y="513.84" width="120" height="60" as="geometry" />
        </mxCell>
        <mxCell id="izIqLuCCxUpFBqjcdbpk-3" value="ms-users" style="rounded=0;whiteSpace=wrap;html=1;" parent="1" vertex="1">
          <mxGeometry x="620.22" y="513.84" width="120" height="60" as="geometry" />
        </mxCell>
        <mxCell id="izIqLuCCxUpFBqjcdbpk-4" value="" style="endArrow=classic;html=1;rounded=0;exitX=1;exitY=0.5;exitDx=0;exitDy=0;entryX=0;entryY=0.5;entryDx=0;entryDy=0;" parent="1" source="izIqLuCCxUpFBqjcdbpk-2" target="izIqLuCCxUpFBqjcdbpk-3" edge="1">
          <mxGeometry width="50" height="50" relative="1" as="geometry">
            <mxPoint x="880.22" y="643.84" as="sourcePoint" />
            <mxPoint x="930.22" y="593.84" as="targetPoint" />
          </mxGeometry>
        </mxCell>
        <mxCell id="izIqLuCCxUpFBqjcdbpk-5" value="http" style="text;html=1;align=center;verticalAlign=middle;resizable=0;points=[];autosize=1;strokeColor=none;fillColor=none;" parent="1" vertex="1">
          <mxGeometry x="560.22" y="513.84" width="40" height="30" as="geometry" />
        </mxCell>
        <mxCell id="izIqLuCCxUpFBqjcdbpk-6" value="" style="endArrow=classic;html=1;rounded=0;entryX=1.004;entryY=0.698;entryDx=0;entryDy=0;entryPerimeter=0;exitX=-0.006;exitY=0.688;exitDx=0;exitDy=0;exitPerimeter=0;" parent="1" source="izIqLuCCxUpFBqjcdbpk-3" target="izIqLuCCxUpFBqjcdbpk-2" edge="1">
          <mxGeometry width="50" height="50" relative="1" as="geometry">
            <mxPoint x="880.22" y="533.84" as="sourcePoint" />
            <mxPoint x="930.22" y="483.84000000000003" as="targetPoint" />
          </mxGeometry>
        </mxCell>
        <mxCell id="izIqLuCCxUpFBqjcdbpk-7" value="" style="endArrow=classic;html=1;rounded=0;exitX=1.018;exitY=0.412;exitDx=0;exitDy=0;exitPerimeter=0;entryX=0.001;entryY=0.414;entryDx=0;entryDy=0;entryPerimeter=0;" parent="1" source="izIqLuCCxUpFBqjcdbpk-3" edge="1">
          <mxGeometry width="50" height="50" relative="1" as="geometry">
            <mxPoint x="880.22" y="533.84" as="sourcePoint" />
            <mxPoint x="850.38958" y="536.8155199999999" as="targetPoint" />
          </mxGeometry>
        </mxCell>
        <mxCell id="izIqLuCCxUpFBqjcdbpk-8" value="" style="endArrow=classic;html=1;rounded=0;entryX=1.013;entryY=0.669;entryDx=0;entryDy=0;entryPerimeter=0;exitX=-0.016;exitY=0.61;exitDx=0;exitDy=0;exitPerimeter=0;" parent="1" target="izIqLuCCxUpFBqjcdbpk-3" edge="1">
          <mxGeometry width="50" height="50" relative="1" as="geometry">
            <mxPoint x="847.5067200000003" y="552.8247999999999" as="sourcePoint" />
            <mxPoint x="930.22" y="483.84000000000003" as="targetPoint" />
          </mxGeometry>
        </mxCell>
        <mxCell id="Z06EVbDFWY43I8v8M6vK-1" value="" style="shape=image;verticalLabelPosition=bottom;labelBackgroundColor=default;verticalAlign=top;aspect=fixed;imageAspect=0;image=https://upload.wikimedia.org/wikipedia/commons/thumb/2/29/Postgresql_elephant.svg/1200px-Postgresql_elephant.svg.png;" vertex="1" parent="1">
          <mxGeometry x="850" y="500" width="106.7" height="110" as="geometry" />
        </mxCell>
      </root>
    </mxGraphModel>
  </diagram>
</mxfile>
